<svg
   width="24"
   height="24"
   viewBox="0 0 24 24"
   fill="none"
>
  <path
     d="M 21.328403,0.89491636 H 2.7963895 C 2.5575279,0.88372774 2.3187912,0.9197507 2.0938666,1.0009445 1.8689421,1.0821383 1.6622443,1.2068928 1.4855863,1.3680588 1.3089421,1.5292387 1.1658084,1.7236791 1.0644029,1.940233 0.96299737,2.1568008 0.90529129,2.3912342 0.89460244,2.6301237 V 21.203824 c 0.0139921,0.499878 0.21885816,0.975603 0.57252126,1.329169 0.3536629,0.353704 0.829304,0.558597 1.3292658,0.572618 H 21.328403 c 0.485996,-0.02166 0.944231,-0.232934 1.276418,-0.588444 0.332188,-0.355509 0.511817,-0.82693 0.500435,-1.313343 V 2.6301237 C 23.109258,2.3976058 23.065696,2.16674 22.977267,1.9516577 22.88884,1.736589 22.757381,1.5418432 22.590941,1.3793585 22.424637,1.2168876 22.226824,1.0901203 22.009714,1.0068164 21.792606,0.92351257 21.560782,0.88543522 21.328403,0.89491636 Z M 7.8354314,19.413089 H 4.6010051 V 9.5154676 H 7.8354314 Z M 6.2945674,8.0162068 C 6.0688655,8.0240778 5.8439687,7.9851813 5.6340226,7.9019748 5.4240625,7.818768 5.2335785,7.6930419 5.0745501,7.5326948 4.915508,7.3723478 4.7913365,7.1808504 4.7098511,6.970224 4.6283519,6.7595976 4.5913018,6.5343954 4.6010051,6.3087629 4.5910242,6.0806873 4.6288239,5.8530559 4.711989,5.6404583 4.7951539,5.4278469 4.9218379,5.234975 5.0839063,5.0742116 5.2459886,4.9134342 5.4398737,4.7883188 5.6531376,4.706889 5.8664153,4.6254453 6.0943523,4.5894919 6.3223307,4.6013191 c 0.2257019,-0.00786 0.4505986,0.031026 0.6605448,0.1142321 0.20996,0.083207 0.4004442,0.2089327 0.5594724,0.3692799 0.1590421,0.160347 0.2832135,0.3518445 0.364699,0.5624708 0.081499,0.2106264 0.1185494,0.4358286 0.108846,0.661461 C 8.0258738,6.5368386 7.988074,6.76447 7.904909,6.9770676 7.8217441,7.1896791 7.6950601,7.3825509 7.5329917,7.5433143 7.3709094,7.7040917 7.1770243,7.829207 6.9637604,7.9106369 6.7504827,7.9920805 6.5225458,8.0280341 6.2945674,8.0162068 Z M 19.412734,19.413089 h -3.248309 v -5.413846 c 0,-1.290994 -0.458094,-2.17942 -1.610271,-2.17942 -0.35787,0.003 -0.70616,0.116745 -0.996842,0.325525 -0.29082,0.20878 -0.509873,0.502377 -0.627312,0.840534 -0.09023,0.253479 -0.12799,0.522645 -0.111054,0.791255 v 5.635952 H 9.6261653 V 9.5154676 H 12.818946 V 10.903633 C 13.102827,10.3821 13.525245,9.9492694 14.0397,9.6527572 c 0.514454,-0.2963735 1.100815,-0.4447961 1.694395,-0.4288461 2.096131,0 3.678639,1.3882079 3.678639,4.3450009 z"
     fill="#000000"/>
</svg>
